
      <svg data-logo="logo" xmlns="http://www.w3.org/2000/svg" viewBox="0 0 206 46">
        <g id="logogram" transform="translate(0, 3) rotate(0) "><path d="M20 0C25.3043 4.00466e-07 30.3919 2.10669 34.1426 5.85742C34.8157 6.53058 35.4354 7.24719 36 8H20C16.8174 8 13.7651 9.26421 11.5146 11.5146C9.26421 13.7651 8 16.8174 8 20H20L36.9102 9.31934C38.1656 11.3074 39.0611 13.5027 39.5547 15.8027L32 20H40L39.9941 20.4971C39.8669 25.6213 37.776 30.5092 34.1426 34.1426C30.3919 37.8933 25.3043 40 20 40C14.6957 40 9.60815 37.8933 5.85742 34.1426C5.18426 33.4694 4.56459 32.7528 4 32H20C23.1826 32 26.2349 30.7358 28.4854 28.4854C30.5952 26.3755 31.8383 23.5608 31.9854 20.5947L32 20H20L3.08984 30.6787C1.83452 28.6906 0.941002 26.4951 0.447266 24.1953L8 20H0C8.00931e-07 14.6957 2.1067 9.60815 5.85742 5.85742C9.60815 2.1067 14.6957 -5.79361e-10 20 0Z" fill="#3DD9B3"/></g>
        <g id="logotype" transform="translate(46, 1)"><path fill="#ffffff" d="M17.38 10.43Q21.26 10.43 24.17 11.97Q27.07 13.51 28.66 16.29Q30.26 19.07 30.26 22.71L30.26 22.71Q30.26 26.32 28.66 29.12Q27.07 31.92 24.15 33.46Q21.23 35 17.38 35L17.38 35L8.17 35L8.17 10.43L17.38 10.43ZM16.99 29.82Q20.39 29.82 22.28 27.96Q24.17 26.11 24.17 22.71L24.17 22.71Q24.17 19.32 22.28 17.43Q20.39 15.54 16.99 15.54L16.99 15.54L14.16 15.54L14.16 29.82L16.99 29.82ZM39.60 18.72Q40.65 17.11 42.23 16.19Q43.80 15.26 45.73 15.26L45.73 15.26L45.73 21.59L44.08 21.59Q41.84 21.59 40.72 22.56Q39.60 23.52 39.60 25.93L39.60 25.93L39.60 35L33.62 35L33.62 15.47L39.60 15.47L39.60 18.72ZM57.49 35.28Q54.62 35.28 52.32 34.05Q50.03 32.83 48.72 30.55Q47.41 28.28 47.41 25.23L47.41 25.23Q47.41 22.23 48.74 19.93Q50.07 17.64 52.38 16.41Q54.69 15.19 57.56 15.19L57.56 15.19Q60.43 15.19 62.74 16.41Q65.05 17.64 66.38 19.93Q67.71 22.23 67.71 25.23L67.71 25.23Q67.71 28.24 66.36 30.54Q65.01 32.83 62.68 34.05Q60.36 35.28 57.49 35.28L57.49 35.28ZM57.49 30.10Q59.20 30.10 60.41 28.84Q61.62 27.58 61.62 25.23L61.62 25.23Q61.62 22.89 60.44 21.63Q59.27 20.37 57.56 20.37L57.56 20.37Q55.81 20.37 54.65 21.61Q53.50 22.85 53.50 25.23L53.50 25.23Q53.50 27.58 54.63 28.84Q55.77 30.10 57.49 30.10L57.49 30.10ZM76.88 18.23Q77.75 16.87 79.29 16.03Q80.83 15.19 82.89 15.19L82.89 15.19Q85.31 15.19 87.27 16.41Q89.23 17.64 90.37 19.91Q91.50 22.19 91.50 25.20L91.50 25.20Q91.50 28.21 90.37 30.50Q89.23 32.80 87.27 34.04Q85.31 35.28 82.89 35.28L82.89 35.28Q80.86 35.28 79.31 34.44Q77.75 33.60 76.88 32.27L76.88 32.27L76.88 44.31L70.89 44.31L70.89 15.47L76.88 15.47L76.88 18.23ZM85.41 25.20Q85.41 22.96 84.17 21.68Q82.93 20.41 81.11 20.41L81.11 20.41Q79.33 20.41 78.08 21.70Q76.84 22.99 76.84 25.23L76.84 25.23Q76.84 27.48 78.08 28.77Q79.33 30.06 81.11 30.06L81.11 30.06Q82.89 30.06 84.16 28.75Q85.41 27.44 85.41 25.20L85.41 25.20ZM100.64 18.23Q101.48 16.87 103.06 16.03Q104.63 15.19 106.66 15.19L106.66 15.19Q109.08 15.19 111.03 16.41Q113.00 17.64 114.13 19.91Q115.27 22.19 115.27 25.20L115.27 25.20Q115.27 28.21 114.13 30.50Q113.00 32.80 111.03 34.04Q109.08 35.28 106.66 35.28L106.66 35.28Q104.59 35.28 103.06 34.46Q101.52 33.63 100.64 32.27L100.64 32.27L100.64 35L94.66 35L94.66 9.10L100.64 9.10L100.64 18.23ZM109.18 25.20Q109.18 22.96 107.94 21.68Q106.69 20.41 104.88 20.41L104.88 20.41Q103.09 20.41 101.85 21.70Q100.61 22.99 100.61 25.23L100.61 25.23Q100.61 27.48 101.85 28.77Q103.09 30.06 104.88 30.06L104.88 30.06Q106.66 30.06 107.92 28.75Q109.18 27.44 109.18 25.20L109.18 25.20ZM127.31 35.28Q124.44 35.28 122.15 34.05Q119.86 32.83 118.54 30.55Q117.23 28.28 117.23 25.23L117.23 25.23Q117.23 22.23 118.56 19.93Q119.89 17.64 122.20 16.41Q124.51 15.19 127.38 15.19L127.38 15.19Q130.25 15.19 132.56 16.41Q134.87 17.64 136.20 19.93Q137.53 22.23 137.53 25.23L137.53 25.23Q137.53 28.24 136.18 30.54Q134.84 32.83 132.51 34.05Q130.18 35.28 127.31 35.28L127.31 35.28ZM127.31 30.10Q129.03 30.10 130.23 28.84Q131.44 27.58 131.44 25.23L131.44 25.23Q131.44 22.89 130.27 21.63Q129.09 20.37 127.38 20.37L127.38 20.37Q125.63 20.37 124.47 21.61Q123.32 22.85 123.32 25.23L123.32 25.23Q123.32 27.58 124.46 28.84Q125.59 30.10 127.31 30.10L127.31 30.10ZM158.99 35L152.27 35L148.52 29.57L145.37 35L138.90 35L145.34 25.02L138.72 15.47L145.44 15.47L149.19 20.86L152.34 15.47L158.81 15.47L152.27 25.30L158.99 35Z"/></g>
        
      </svg>
    