<svg data-logo="logo" xmlns="http://www.w3.org/2000/svg" viewBox="0 0 217 45">
        <g style="opacity: 1;" id="logogram" transform="translate(0, 2.5) rotate(0)"><path d="M20 0C25.3043 4.00466e-07 30.3919 2.10669 34.1426 5.85742C34.8157 6.53058 35.4354 7.24719 36 8H20C16.8174 8 13.7651 9.26421 11.5146 11.5146C9.26421 13.7651 8 16.8174 8 20H20L36.9102 9.31934C38.1656 11.3074 39.0611 13.5027 39.5547 15.8027L32 20H40L39.9941 20.4971C39.8669 25.6213 37.776 30.5092 34.1426 34.1426C30.3919 37.8933 25.3043 40 20 40C14.6957 40 9.60815 37.8933 5.85742 34.1426C5.18426 33.4694 4.56459 32.7528 4 32H20C23.1826 32 26.2349 30.7358 28.4854 28.4854C30.5952 26.3755 31.8383 23.5608 31.9854 20.5947L32 20H20L3.08984 30.6787C1.83452 28.6906 0.941002 26.4951 0.447266 24.1953L8 20H0C8.00931e-07 14.6957 2.1067 9.60815 5.85742 5.85742C9.60815 2.1067 14.6957 -5.79361e-10 20 0Z" fill="#F26419"></path></g>
        <g style="opacity: 1;" id="logotype" transform="translate(46, 1)"><path fill="#111111" d="M28.33 35L8.03 35L8.03 9.80L28.33 9.80Q29.66 9.80 30.78 10.46Q31.90 11.13 32.56 12.23Q33.23 13.33 33.23 14.66L33.23 14.66L33.23 30.13Q33.23 31.46 32.56 32.57Q31.90 33.67 30.78 34.34Q29.66 35 28.33 35L28.33 35ZM13.04 30.34L13.04 30.34L28.12 30.34Q28.30 30.34 28.44 30.22Q28.58 30.10 28.58 29.93L28.58 29.93L28.58 14.87Q28.58 14.70 28.44 14.58Q28.30 14.45 28.12 14.45L28.12 14.45L13.04 14.45Q12.86 14.45 12.74 14.58Q12.62 14.70 12.62 14.87L12.62 14.87L12.62 29.93Q12.62 30.10 12.74 30.22Q12.86 30.34 13.04 30.34ZM41.59 35L37.01 35L37.01 35L37.01 19.53Q37.01 18.20 37.67 17.11Q38.34 16.03 39.44 15.36Q40.55 14.70 41.84 14.70L41.84 14.70L53.11 14.70L53.11 19.28L42.02 19.28Q41.84 19.28 41.72 19.41Q41.59 19.53 41.59 19.70L41.59 19.70L41.59 35ZM60.15 35L60.15 35Q58.81 35 57.73 34.34Q56.65 33.67 55.98 32.59Q55.31 31.50 55.31 30.17L55.31 30.17L55.31 19.53Q55.31 18.20 55.98 17.11Q56.65 16.03 57.73 15.36Q58.81 14.70 60.15 14.70L60.15 14.70L71.10 14.70Q72.43 14.70 73.53 15.36Q74.64 16.03 75.28 17.11Q75.93 18.20 75.93 19.53L75.93 19.53L75.93 30.17Q75.93 31.50 75.28 32.59Q74.64 33.67 73.55 34.34Q72.47 35 71.10 35L71.10 35L60.15 35ZM60.32 30.41L60.32 30.41L70.93 30.41Q71.10 30.41 71.22 30.29Q71.34 30.17 71.34 29.99L71.34 29.99L71.34 19.70Q71.34 19.53 71.22 19.41Q71.10 19.28 70.93 19.28L70.93 19.28L60.32 19.28Q60.15 19.28 60.02 19.41Q59.90 19.53 59.90 19.70L59.90 19.70L59.90 29.99Q59.90 30.17 60.02 30.29Q60.15 30.41 60.32 30.41ZM84.22 43.05L79.64 43.05L79.64 43.05L79.64 14.70L95.42 14.70Q96.75 14.70 97.86 15.36Q98.96 16.03 99.61 17.11Q100.25 18.20 100.25 19.53L100.25 19.53L100.25 30.17Q100.25 31.50 99.61 32.59Q98.96 33.67 97.86 34.34Q96.75 35 95.42 35L95.42 35L84.22 35L84.22 43.05ZM84.64 30.41L84.64 30.41L95.25 30.41Q95.42 30.41 95.55 30.29Q95.67 30.17 95.67 29.99L95.67 29.99L95.67 19.70Q95.67 19.53 95.55 19.41Q95.42 19.28 95.25 19.28L95.25 19.28L84.64 19.28Q84.47 19.28 84.35 19.41Q84.22 19.53 84.22 19.70L84.22 19.70L84.22 29.99Q84.22 30.17 84.35 30.29Q84.47 30.41 84.64 30.41ZM118.67 35L102.88 35L102.88 35L102.88 8.05L107.47 8.05L107.47 14.70L118.67 14.70Q120.00 14.70 121.10 15.36Q122.20 16.03 122.85 17.11Q123.50 18.20 123.50 19.53L123.50 19.53L123.50 30.17Q123.50 31.50 122.85 32.59Q122.20 33.67 121.10 34.34Q120.00 35 118.67 35L118.67 35ZM107.89 30.41L107.89 30.41L118.49 30.41Q118.67 30.41 118.79 30.29Q118.91 30.17 118.91 29.99L118.91 29.99L118.91 19.70Q118.91 19.53 118.79 19.41Q118.67 19.28 118.49 19.28L118.49 19.28L107.89 19.28Q107.71 19.28 107.59 19.41Q107.47 19.53 107.47 19.70L107.47 19.70L107.47 29.99Q107.47 30.17 107.59 30.29Q107.71 30.41 107.89 30.41ZM130.95 35L130.95 35Q129.62 35 128.53 34.34Q127.45 33.67 126.79 32.59Q126.12 31.50 126.12 30.17L126.12 30.17L126.12 19.53Q126.12 18.20 126.79 17.11Q127.45 16.03 128.53 15.36Q129.62 14.70 130.95 14.70L130.95 14.70L141.91 14.70Q143.24 14.70 144.34 15.36Q145.44 16.03 146.09 17.11Q146.74 18.20 146.74 19.53L146.74 19.53L146.74 30.17Q146.74 31.50 146.09 32.59Q145.44 33.67 144.36 34.34Q143.27 35 141.91 35L141.91 35L130.95 35ZM131.13 30.41L131.13 30.41L141.73 30.41Q141.91 30.41 142.03 30.29Q142.15 30.17 142.15 29.99L142.15 29.99L142.15 19.70Q142.15 19.53 142.03 19.41Q141.91 19.28 141.73 19.28L141.73 19.28L131.13 19.28Q130.95 19.28 130.83 19.41Q130.71 19.53 130.71 19.70L130.71 19.70L130.71 29.99Q130.71 30.17 130.83 30.29Q130.95 30.41 131.13 30.41ZM154.12 35L149.15 35L149.15 35L149.15 33.77L156.61 24.67L149.15 15.92L149.15 14.70L154.12 14.70L159.58 21.14L165.04 14.70L170.01 14.70L170.01 15.92L162.56 24.67L170.01 33.77L170.01 35L165.08 35L159.58 28.28L154.12 35Z"></path></g>
        
      </svg>